<?xml version="1.0" encoding="utf-8"?>
<!-- Generator: Adobe Illustrator 25.2.3, SVG Export Plug-In . SVG Version: 6.00 Build 0)  -->
<svg version="1.1" id="Livello_1" xmlns="http://www.w3.org/2000/svg" xmlns:xlink="http://www.w3.org/1999/xlink" x="0px" y="0px"
	 viewBox="0 0 24 24" style="enable-background:new 0 0 24 24;" xml:space="preserve">
<style type="text/css">
	.st0{fill:#FFFFFF;}
</style>
<g>
	<path class="st0" d="M12,15.8c-2.1,0-3.8-1.7-3.8-3.8S9.9,8.2,12,8.2s3.8,1.7,3.8,3.8S14.1,15.8,12,15.8z M12,9.3
		c-1.5,0-2.8,1.2-2.8,2.8s1.2,2.8,2.8,2.8s2.8-1.2,2.8-2.8S13.5,9.3,12,9.3z"/>
</g>
<g>
	<rect x="11.5" y="2.3" class="st0" width="1" height="2.5"/>
</g>
<g>
	<rect x="15.3" y="6.8" transform="matrix(0.7071 -0.7071 0.7071 0.7071 -0.306 13.8971)" class="st0" width="2.7" height="1"/>
</g>
<g>
	<rect x="19.2" y="11.5" class="st0" width="2.5" height="1"/>
</g>
<g>
	<rect x="16.2" y="15.3" transform="matrix(0.7071 -0.7071 0.7071 0.7071 -6.8678 16.6644)" class="st0" width="1" height="2.7"/>
</g>
<g>
	<rect x="11.5" y="19.3" class="st0" width="1" height="2.5"/>
</g>
<g>
	<rect x="6" y="16.2" transform="matrix(0.7071 -0.7071 0.7071 0.7071 -9.6352 10.1026)" class="st0" width="2.7" height="1"/>
</g>
<g>
	<rect x="2.2" y="11.5" class="st0" width="2.5" height="1"/>
</g>
<g>
	<rect x="6.8" y="6" transform="matrix(0.7071 -0.7071 0.7071 0.7071 -3.0733 7.3352)" class="st0" width="1" height="2.7"/>
</g>
</svg>
