<?xml version="1.0" encoding="utf-8"?>
<!-- Generator: Adobe Illustrator 25.2.3, SVG Export Plug-In . SVG Version: 6.00 Build 0)  -->
<svg version="1.1" id="Livello_1" xmlns="http://www.w3.org/2000/svg" xmlns:xlink="http://www.w3.org/1999/xlink" x="0px" y="0px"
	 viewBox="0 0 24 24" style="enable-background:new 0 0 24 24;" xml:space="preserve">
<style type="text/css">
	.st0{fill:#17324D;}
	.st1{fill:none;}
</style>
<g>
	<path class="st0" d="M12,2C6.5,2,2,6.5,2,12s4.5,10,10,10s10-4.5,10-10S17.5,2,12,2z M12,21c-5,0-9-4-9-9s4-9,9-9s9,4,9,9
		S17,21,12,21L12,21z M10.8,16.5H12v1.8h-1.2V16.5z M15.3,8.5c0,0.6-0.1,1.2-0.3,1.8c-0.3,0.5-0.8,1-1.3,1.4L12.3,13
		c-0.2,0.4-0.4,0.8-0.4,1.2v0.6H11c-0.1-0.3-0.2-0.7-0.2-1c0-0.4,0.2-0.9,0.5-1.2c0.4-0.5,0.9-1,1.4-1.4c0.5-0.4,0.9-0.8,1.2-1.3
		c0.2-0.4,0.3-0.9,0.3-1.4c0-0.5-0.2-1.1-0.6-1.4c-0.6-0.3-1.3-0.5-2-0.4L9.3,7H8.8V6.2c1-0.3,2-0.5,3-0.5c0.9-0.1,1.9,0.1,2.7,0.6
		C15.1,6.9,15.4,7.7,15.3,8.5z"/>
</g>
<g>
	<rect class="st1" width="24" height="24"/>
</g>
</svg>
