<?xml version="1.0" encoding="utf-8"?>
<!-- Generator: Adobe Illustrator 25.2.3, SVG Export Plug-In . SVG Version: 6.00 Build 0)  -->
<svg version="1.1" id="Livello_1" xmlns="http://www.w3.org/2000/svg" xmlns:xlink="http://www.w3.org/1999/xlink" x="0px" y="0px"
	 viewBox="0 0 20 20" style="enable-background:new 0 0 20 20;" xml:space="preserve">
<g>
	<path d="M1,9.8C1.2,1.1,12.7-2.3,17.5,5c0,0-4,0-4,0v1c0.7,0,4.9,0,5.5,0V5.7V0.5h-1V4C12.2-3.6,0.1,0.4,0,10h1C1,9.9,1,9.9,1,9.8z
		"/>
	<path d="M20,10h-1c0.1,8.8-11.6,12.4-16.5,5c0,0,4,0,4,0v-1c-0.7,0-4.9,0-5.5,0v0.3v5.2h1V16C7.8,23.6,19.9,19.6,20,10z"/>
</g>
</svg>
