<?xml version="1.0" encoding="utf-8"?>
<!-- Generator: Adobe Illustrator 25.2.1, SVG Export Plug-In . SVG Version: 6.00 Build 0)  -->
<svg version="1.1" id="Layer_1" xmlns="http://www.w3.org/2000/svg" xmlns:xlink="http://www.w3.org/1999/xlink" x="0px" y="0px"
	 viewBox="0 0 24 24" style="enable-background:new 0 0 24 24;" xml:space="preserve">
<path d="M12,4c-4.4000001,0-8,3.5999999-8,8s3.5999999,8,8,8s8-3.6000004,8-8S16.3999996,4,12,4z M5.5,12
	c0-3.6000004,2.8999996-6.5,6.5-6.5c1.5,0,2.8999996,0.5,4,1.4000001C16,6.9000001,16,7,15.8999996,7l-9,9l0,0
	C6,14.8999996,5.5,13.5,5.5,12z M12,18.5c-1.5,0-2.8999996-0.5-4-1.3999996l0,0L17.1000004,8l0,0
	C17.9000015,9.1000004,18.5,10.5,18.5,12C18.5,15.6000004,15.6000004,18.5,12,18.5z"/>
</svg>
