<?xml version="1.0" encoding="utf-8"?>
<!-- Generator: Adobe Illustrator 25.2.1, SVG Export Plug-In . SVG Version: 6.00 Build 0)  -->
<svg version="1.1" id="Layer_1" xmlns="http://www.w3.org/2000/svg" xmlns:xlink="http://www.w3.org/1999/xlink" x="0px" y="0px"
	 viewBox="0 0 24 24" style="enable-background:new 0 0 24 24;" xml:space="preserve">
<path d="M18.6767578,6.1328125c-0.34375-0.2353516-0.8085938-0.1494141-1.0439453,0.190918l-6.6494141,9.6206055
	c-0.2329102,0.3378906-0.6020508,0.5341797-1.0117188,0.5400391C9.5683594,16.4902344,9.1875,16.3027344,8.9458008,15.9716797
	L6.355957,12.4243164c-0.2451172-0.3344727-0.7148438-0.4077148-1.0483398-0.1635742
	c-0.3344727,0.2446289-0.4077148,0.7138672-0.1635742,1.0478516l2.590332,3.5478516
	c0.5170898,0.7080078,1.3452148,1.1279297,2.2207031,1.1279297c0.012207,0,0.0244141,0,0.0361328,0
	c0.8886719-0.0117188,1.7211914-0.4560547,2.2265625-1.1865234l6.6494141-9.621582
	C19.1025391,6.8354492,19.0175781,6.3686523,18.6767578,6.1328125z"/>
</svg>
