<?xml version="1.0" encoding="utf-8"?>
<!-- Generator: Adobe Illustrator 25.2.1, SVG Export Plug-In . SVG Version: 6.00 Build 0)  -->
<svg version="1.1" id="Layer_1" xmlns="http://www.w3.org/2000/svg" xmlns:xlink="http://www.w3.org/1999/xlink" x="0px" y="0px"
	 viewBox="0 0 24 24" style="enable-background:new 0 0 24 24;" xml:space="preserve">
<g>
	<path d="M12,4c-4.4111328,0-8,3.5888672-8,8s3.5888672,8,8,8s8-3.5888672,8-8S16.4111328,4,12,4z M12,18.5
		c-3.5839844,0-6.5-2.9160156-6.5-6.5S8.4160156,5.5,12,5.5s6.5,2.9160156,6.5,6.5S15.5839844,18.5,12,18.5z"/>
	<path d="M14.6230469,9.0996094c-0.3574219-0.2075195-0.8164062-0.081543-1.0234375,0.2773438l-2.293457,3.9970703
		C11.2402344,13.4882812,11.1328125,13.5,11.0786133,13.5c-0.0566406-0.0029297-0.1601562-0.0244141-0.2158203-0.1435547
		l-0.4335938-0.9248047c-0.1762695-0.3740234-0.6210938-0.5366211-0.9975586-0.3608398
		c-0.375,0.1757812-0.5366211,0.6225586-0.3608398,0.9975586l0.434082,0.9248047
		c0.277832,0.5927734,0.8574219,0.9785156,1.512207,1.0048828C11.0415039,14.9990234,11.0654297,15,11.0898438,15
		c0.6269531,0,1.203125-0.3320312,1.5170898-0.8798828l2.293457-3.9970703
		C15.1064453,9.7641602,14.9824219,9.3056641,14.6230469,9.0996094z"/>
</g>
</svg>
