<?xml version="1.0" encoding="utf-8"?>
<!-- Generator: Adobe Illustrator 25.2.3, SVG Export Plug-In . SVG Version: 6.00 Build 0)  -->
<svg version="1.1" id="Livello_1" xmlns="http://www.w3.org/2000/svg" xmlns:xlink="http://www.w3.org/1999/xlink" x="0px" y="0px"
	 viewBox="0 0 24 24" style="enable-background:new 0 0 24 24;" xml:space="preserve">
<style type="text/css">
	.st0{fill:none;stroke:#0066CC;stroke-width:1.5;stroke-linecap:round;stroke-linejoin:round;}
	.st1{fill:none;stroke:#0066CC;stroke-linecap:round;stroke-linejoin:round;}
</style>
<path class="st0" d="M19.2,12c0,4-3.2,7.2-7.2,7.2S4.8,16,4.8,12C4.8,8,8,4.7,12,4.7S19.2,8,19.2,12z"/>
<path class="st0" d="M9.8,10c0,0,0.2-2.2,2.2-2.2S14.2,9,14.2,10c0,0.8-0.4,1.5-1.3,1.8c-0.5,0.2-1,0.6-1,1.2v0.2"/>
<path class="st1" d="M12.5,16c0,0.3-0.2,0.5-0.5,0.5s-0.5-0.2-0.5-0.5c0-0.3,0.2-0.5,0.5-0.5S12.5,15.7,12.5,16z"/>
</svg>
