<?xml version="1.0" encoding="UTF-8" standalone="no"?>
<svg
   width="24"
   height="24"
   fill="none"
   viewBox="0 0 24 24"
   version="1.1"
   id="svg746"
   sodipodi:docname="pause-white.svg"
   inkscape:version="1.2.1 (9c6d41e4, 2022-07-14)"
   xmlns:inkscape="http://www.inkscape.org/namespaces/inkscape"
   xmlns:sodipodi="http://sodipodi.sourceforge.net/DTD/sodipodi-0.dtd"
   xmlns="http://www.w3.org/2000/svg"
   xmlns:svg="http://www.w3.org/2000/svg">
  <defs
     id="defs750" />
  <sodipodi:namedview
     id="namedview748"
     pagecolor="#ffffff"
     bordercolor="#000000"
     borderopacity="0.25"
     inkscape:showpageshadow="2"
     inkscape:pageopacity="0.0"
     inkscape:pagecheckerboard="0"
     inkscape:deskcolor="#d1d1d1"
     showgrid="false"
     inkscape:zoom="30.258278"
     inkscape:cx="11.236595"
     inkscape:cy="12.60812"
     inkscape:window-width="1427"
     inkscape:window-height="1205"
     inkscape:window-x="0"
     inkscape:window-y="25"
     inkscape:window-maximized="0"
     inkscape:current-layer="svg746" />
  <g
     id="path742"
     style="fill:#ffffff">
    <path
       style="color:#000000;fill:#ffffff;stroke-width:1.5;stroke-linecap:round;stroke-linejoin:round"
       d="m 15.25,6.75 v 10.5"
       id="path1859" />
    <path
       style="color:#000000;fill:#ffffff;stroke-linecap:round;stroke-linejoin:round"
       d="M 15.25,6 A 0.75,0.75 0 0 0 14.5,6.75 v 10.5 A 0.75,0.75 0 0 0 15.25,18 0.75,0.75 0 0 0 16,17.25 V 6.75 A 0.75,0.75 0 0 0 15.25,6 Z"
       id="path1861" />
  </g>
  <g
     id="path744"
     style="fill:#ffffff">
    <path
       style="color:#000000;fill:#ffffff;stroke-width:1.5;stroke-linecap:round;stroke-linejoin:round;-inkscape-stroke:none"
       d="m 8.75,6.75 v 10.5"
       id="path1865" />
    <path
       style="color:#000000;fill:#ffffff;stroke-linecap:round;stroke-linejoin:round;-inkscape-stroke:none"
       d="M 8.75,6 A 0.75,0.75 0 0 0 8,6.75 v 10.5 A 0.75,0.75 0 0 0 8.75,18 0.75,0.75 0 0 0 9.5,17.25 V 6.75 A 0.75,0.75 0 0 0 8.75,6 Z"
       id="path1867" />
  </g>
</svg>
