<?xml version="1.0" encoding="utf-8"?>
<!-- Generator: Adobe Illustrator 25.2.1, SVG Export Plug-In . SVG Version: 6.00 Build 0)  -->
<svg version="1.1" id="Layer_1" xmlns="http://www.w3.org/2000/svg" xmlns:xlink="http://www.w3.org/1999/xlink" x="0px" y="0px"
	 viewBox="0 0 24 24" style="enable-background:new 0 0 24 24;" xml:space="preserve">
<g>
	<path d="M4.75,8.75h2.3565063C7.4418945,10.0402832,8.6062012,11,10,11s2.5581055-0.9597168,2.8934937-2.25H19.25
		C19.6640625,8.75,20,8.4140625,20,8s-0.3359375-0.75-0.75-0.75h-6.3565063C12.5581055,5.9597168,11.3937988,5,10,5
		S7.4418945,5.9597168,7.1065063,7.25H4.75C4.3359375,7.25,4,7.5859375,4,8S4.3359375,8.75,4.75,8.75z M10,6.5
		c0.8271484,0,1.5,0.6728516,1.5,1.5S10.8271484,9.5,10,9.5S8.5,8.8271484,8.5,8S9.1728516,6.5,10,6.5z"/>
	<path d="M19.25,15.25h-1.3565063C17.5581055,13.9597168,16.3937988,13,15,13s-2.5581055,0.9597168-2.8934937,2.25H4.75
		C4.3359375,15.25,4,15.5859375,4,16s0.3359375,0.75,0.75,0.75h7.3565063C12.4418945,18.0402832,13.6062012,19,15,19
		s2.5581055-0.9597168,2.8934937-2.25H19.25c0.4140625,0,0.75-0.3359375,0.75-0.75S19.6640625,15.25,19.25,15.25z M15,17.5
		c-0.8271484,0-1.5-0.6728516-1.5-1.5s0.6728516-1.5,1.5-1.5s1.5,0.6728516,1.5,1.5S15.8271484,17.5,15,17.5z"/>
</g>
</svg>
