<?xml version="1.0" encoding="utf-8"?>
<!-- Generator: Adobe Illustrator 25.2.1, SVG Export Plug-In . SVG Version: 6.00 Build 0)  -->
<svg version="1.1" id="Livello_1" xmlns="http://www.w3.org/2000/svg" xmlns:xlink="http://www.w3.org/1999/xlink" x="0px" y="0px"
	 viewBox="0 0 24 24" style="enable-background:new 0 0 24 24;" xml:space="preserve">
<style type="text/css">
	.st0{fill:#0066CC;}
</style>
<g>
	<path class="st0" d="M12,15.9501953c-2.1782227,0-3.9501953-1.7724609-3.9501953-3.9501953
		c0-2.1782227,1.7719727-3.9501953,3.9501953-3.9501953c2.1777344,0,3.9501953,1.7719727,3.9501953,3.9501953
		C15.9501953,14.1777344,14.1777344,15.9501953,12,15.9501953z M12,9.5498047c-1.3510742,0-2.4501953,1.0991211-2.4501953,2.4501953
		c0,1.3505859,1.0991211,2.4501953,2.4501953,2.4501953c1.3505859,0,2.4501953-1.0996094,2.4501953-2.4501953
		C14.4501953,10.6489258,13.3505859,9.5498047,12,9.5498047z"/>
</g>
<g>
	<path class="st0" d="M12,4.9501953c-0.4140625,0-0.75-0.3359375-0.75-0.75v-1.5c0-0.4140625,0.3359375-0.75,0.75-0.75
		s0.75,0.3359375,0.75,0.75v1.5C12.75,4.6142578,12.4140625,4.9501953,12,4.9501953z"/>
</g>
<g>
	<path class="st0" d="M16,8.6499023c-0.1923828,0-0.3837891-0.0732422-0.5302734-0.2197266
		c-0.2929688-0.2929688-0.2929688-0.7680664,0-1.0605469l1.2001953-1.199707c0.2929688-0.293457,0.7685547-0.2924805,1.0605469,0
		c0.2929688,0.2929688,0.2929688,0.7680664,0,1.0605469l-1.2001953,1.199707
		C16.3837891,8.5766602,16.1914062,8.6499023,16,8.6499023z"/>
</g>
<g>
	<path class="st0" d="M21.2001953,12.75h-1.5c-0.4140625,0-0.75-0.3359375-0.75-0.75s0.3359375-0.75,0.75-0.75h1.5
		c0.4140625,0,0.75,0.3359375,0.75,0.75S21.6142578,12.75,21.2001953,12.75z"/>
</g>
<g>
	<path class="st0" d="M17.2001953,18.0498047c-0.1923828,0-0.3837891-0.0732422-0.5302734-0.2197266l-1.2001953-1.2001953
		c-0.2929688-0.2929688-0.2929688-0.7675781,0-1.0605469s0.7675781-0.2929688,1.0605469,0l1.2001953,1.2001953
		c0.2929688,0.2929688,0.2929688,0.7675781,0,1.0605469C17.5839844,17.9765625,17.3925781,18.0498047,17.2001953,18.0498047z"/>
</g>
<g>
	<path class="st0" d="M12,21.9501953c-0.4140625,0-0.75-0.3359375-0.75-0.75v-1.5c0-0.4140625,0.3359375-0.75,0.75-0.75
		s0.75,0.3359375,0.75,0.75v1.5C12.75,21.6142578,12.4140625,21.9501953,12,21.9501953z"/>
</g>
<g>
	<path class="st0" d="M6.7001953,18.0498047c-0.1918945,0-0.3837891-0.0732422-0.5302734-0.2197266
		c-0.2929688-0.2929688-0.2929688-0.7675781,0-1.0605469l1.199707-1.2001953c0.2929688-0.2929688,0.7675781-0.2929688,1.0605469,0
		s0.2929688,0.7675781,0,1.0605469l-1.199707,1.2001953C7.0839844,17.9765625,6.8920898,18.0498047,6.7001953,18.0498047z"/>
</g>
<g>
	<path class="st0" d="M4.2001953,12.75H2.7998047c-0.4140625,0-0.75-0.3359375-0.75-0.75s0.3359375-0.75,0.75-0.75h1.4003906
		c0.4140625,0,0.75,0.3359375,0.75,0.75S4.6142578,12.75,4.2001953,12.75z"/>
</g>
<g>
	<path class="st0" d="M7.8999023,8.6499023c-0.1811523,0-0.362793-0.0649414-0.5068359-0.1972656l-1.199707-1.1000977
		C5.8881836,7.0727539,5.8676758,6.5981445,6.1474609,6.2929688c0.2802734-0.3056641,0.7543945-0.3261719,1.0595703-0.0458984
		l1.199707,1.1000977c0.3051758,0.2797852,0.3256836,0.7543945,0.0458984,1.0595703
		C8.3046875,8.5678711,8.1025391,8.6499023,7.8999023,8.6499023z"/>
</g>
</svg>
