<?xml version="1.0" encoding="utf-8"?>
<!-- Generator: Adobe Illustrator 26.4.0, SVG Export Plug-In . SVG Version: 6.00 Build 0)  -->
<svg version="1.1" id="Livello_1" xmlns="http://www.w3.org/2000/svg" xmlns:xlink="http://www.w3.org/1999/xlink" x="0px" y="0px"
	 viewBox="0 0 24 24" style="enable-background:new 0 0 24 24;" xml:space="preserve">
<style type="text/css">
	.st0{fill:#0066CC;}
</style>
<g>
	<path class="st0" d="M19.25,14.0001831c-0.4140625,0-0.75,0.3359375-0.75,0.75v1.5c0,1.2402344-1.0097656,2.25-2.25,2.25h-8.5
		c-1.2407227,0-2.25-1.0097656-2.25-2.25v-1.5c0-0.4140625-0.3359375-0.75-0.75-0.75s-0.75,0.3359375-0.75,0.75v1.5
		c0,2.0673828,1.6821289,3.75,3.75,3.75h8.5c2.0673828,0,3.75-1.6826172,3.75-3.75v-1.5
		C20,14.3361206,19.6640625,14.0001831,19.25,14.0001831z"/>
	<path class="st0" d="M9.2998047,8.760437L11.25,6.6600342v7.5901489c0,0.4140625,0.3359375,0.75,0.75,0.75
		s0.75-0.3359375,0.75-0.75V6.6600342l1.9501953,2.1004028C14.8486328,8.9196167,15.0488281,9.0001831,15.25,9.0001831
		c0.1826172,0,0.3662109-0.0664062,0.5107422-0.2001953c0.3027344-0.2822266,0.3203125-0.7568359,0.0390625-1.0600586l-3.25-3.5
		c-0.2841797-0.3056641-0.8154297-0.3056641-1.0996094,0l-3.25,3.5C7.918457,8.0431519,7.9360352,8.5177612,8.2397461,8.7999878
		C8.543457,9.0807495,9.0175781,9.0641479,9.2998047,8.760437z"/>
</g>
</svg>
