<?xml version="1.0" encoding="utf-8"?>
<!-- Generator: Adobe Illustrator 25.2.1, SVG Export Plug-In . SVG Version: 6.00 Build 0)  -->
<svg version="1.1" id="Layer_1" xmlns="http://www.w3.org/2000/svg" xmlns:xlink="http://www.w3.org/1999/xlink" x="0px" y="0px"
	 viewBox="0 0 16.5 16.5" style="enable-background:new 0 0 16.5 16.5;" xml:space="preserve">
<style type="text/css">
	.st0{fill:#FF0000;}
</style>
<g>
	<path class="st0" d="M13.5,16.2H3c-1,0-1.8-0.5-2.3-1.3c-0.5-0.8-0.5-1.8-0.1-2.7L5.8,1.8c0.5-0.9,1.4-1.5,2.5-1.5h0
		c1,0,2,0.6,2.5,1.5L16,12.3c0.4,0.9,0.4,1.9-0.1,2.7C15.3,15.7,14.5,16.2,13.5,16.2z M8.2,1.7C7.8,1.7,7.3,2,7.1,2.4L1.9,12.9l0,0
		c-0.2,0.4-0.2,0.8,0.1,1.2s0.6,0.6,1.1,0.6h10.5c0.4,0,0.8-0.2,1.1-0.6c0.2-0.4,0.3-0.8,0.1-1.2L9.4,2.4C9.1,2,8.7,1.7,8.2,1.7
		C8.2,1.7,8.2,1.7,8.2,1.7z M1.2,12.6L1.2,12.6L1.2,12.6z"/>
</g>
<g>
	<path class="st0" d="M8.2,9.2c-0.6,0-1-0.4-1-1v-2c0-0.6,0.4-1,1-1s1,0.4,1,1v2C9.2,8.8,8.8,9.2,8.2,9.2z"/>
</g>
<circle class="st0" cx="8.2" cy="12.2" r="1"/>
</svg>
